<svg width="2560" height="1343" viewBox="0 0 2560 1343" fill="none" xmlns="http://www.w3.org/2000/svg">
<path d="M910.531 2.53091e-08C909.036 7.6268 907.338 15.3339 905.064 22.8669C893.232 62.0562 881.527 101.287 869.233 140.332C860.596 167.764 851.804 195.189 841.737 222.115C833.805 243.334 821.944 262.694 807.302 280.12C799.432 289.485 791.411 298.772 782.853 307.501C766.708 323.968 748.282 337.616 728.377 349.218C696.045 368.064 661.411 380.756 624.508 386.957C612.997 388.891 601.324 390.207 589.671 390.874C574.588 391.738 559.452 391.925 544.338 391.962C382.583 392.358 220.829 392.668 59.0739 392.991C57.5908 392.994 56.1073 392.867 54.0146 392.773C55.5297 386.676 56.8834 380.853 58.4273 375.081C64.5835 352.064 70.8219 329.068 76.9839 306.052C80.7252 292.079 84.3108 278.062 88.1968 264.129C88.5534 262.851 90.5302 261.953 91.8763 261.062C92.342 260.754 93.1774 261.004 93.8439 261C158.782 260.667 223.72 260.389 288.658 259.973C314.77 259.805 340.904 259.88 366.983 258.783C381.672 258.166 396.784 258.933 410.666 252.004C431.732 241.489 450.384 228.341 457.834 204.688C468.996 169.252 479.517 133.612 490.039 97.9778C498.61 68.9545 506.784 39.8138 515.133 10.7253C516.084 7.41388 517.037 4.10305 517.994 0.395972C648.688 -4.08292e-06 779.375 -3.97469e-06 910.531 2.53091e-08Z" fill="#005892"/>
<path d="M0 588.444C0.659287 587.505 1.74999 587.124 1.91562 586.499C8.31811 562.316 14.5252 538.082 21.0022 513.92C25.7107 496.355 30.7612 478.882 35.7147 461.169C338.157 461.169 640.764 461.169 944.555 461.169C932.474 506.319 920.502 551.059 908.476 596C605.866 596 303.402 596 0.46866 596C3.01003e-06 593.63 3e-06 591.259 0 588.444Z" fill="#0087D0"/>
<path d="M2560 263.625C2559.35 264.513 2558.29 264.914 2558.12 265.554C2551.36 290.802 2544.7 316.076 2537.99 341.336C2536.38 347.371 2534.75 353.403 2532.86 359.354C2532.52 360.432 2531.04 361.49 2529.86 361.871C2528.5 362.311 2526.89 361.999 2525.4 361.999C2478.07 362 2430.74 362 2383.41 362C2381.25 362 2379.1 362 2376.62 362C2371.07 380.883 2365.54 399.587 2360.08 418.31C2355.1 435.349 2350.16 452.397 2345.27 469.463C2336.14 501.376 2327.12 533.322 2317.93 565.22C2311.88 586.223 2305.55 607.145 2299.46 628.138C2292.19 653.228 2285.1 678.369 2277.84 703.462C2271.57 725.1 2265.19 746.702 2258.85 768.317C2256.58 776.044 2254.23 783.747 2252.03 791.493C2251.36 793.867 2250.3 795.051 2247.58 795.044C2212.75 794.954 2177.92 794.971 2143.09 794.947C2142.6 794.946 2142.12 794.773 2141.29 794.618C2183.32 650.758 2225.33 506.967 2267.6 362.28C2209.42 362.28 2152.1 362.28 2094 362.28C2094 357.983 2093.78 354.371 2094.04 350.793C2095.56 329.23 2097.3 307.714 2107.94 288.157C2117.49 270.612 2131.51 260.906 2152.14 260.928C2285.46 261.068 2418.78 260.998 2552.1 261.008C2554.43 261.008 2556.76 261.142 2559.54 261.107C2560 261.75 2560 262.5 2560 263.625Z" fill="#005892"/>
<path d="M242.697 691.686C266.974 680.755 291.802 672.851 317.617 667.944C336.537 664.348 355.558 662.941 374.815 662.919C545.404 662.723 715.993 662.333 886.582 662.009C887.734 662.007 888.886 662.117 890.707 662.208C878.929 706.236 867.233 749.962 855.453 793.999C853.327 793.999 851.347 793.999 849.367 793.999C818.539 794 787.711 793.881 756.883 794.028C708.611 794.258 660.339 794.616 612.068 795.034C597.619 795.16 583.156 795.335 568.732 796.103C555.758 796.793 542.668 797.663 530.854 804.062C513.199 813.626 496.862 824.807 489.029 844.346C483.834 857.303 479.321 870.571 475.218 883.919C469.576 902.271 464.575 920.822 459.361 939.305C450.529 970.614 441.775 1001.95 432.916 1033.25C431.17 1039.42 429.29 1045.56 427.032 1051.56C426.476 1053.04 424.291 1054.03 422.674 1054.92C421.906 1055.35 420.714 1055 419.714 1055C293.402 1055 167.09 1055 40.7783 1055C38.7993 1055 36.8204 1055 33.3779 1055C34.8461 1048.92 35.9121 1043.41 37.5102 1038.07C46.0817 1009.39 54.5665 980.69 63.5007 952.127C74.1076 918.217 84.867 884.35 96.0724 850.634C105.606 821.95 119.936 795.885 139.009 772.2C161.36 744.445 187.797 721.802 218.623 704.175C226.354 699.754 234.448 695.966 242.697 691.686Z" fill="#005892"/>
<path d="M1051.92 574.811C1057.77 554.02 1063.54 533.625 1069.37 513.25C1079.28 478.66 1089.19 444.071 1099.18 409.503C1105.75 386.754 1112.45 364.043 1119.1 341.316C1126.39 316.391 1133.77 291.489 1140.92 266.521C1142.11 262.369 1143.95 260.88 1148.45 260.889C1224.43 261.043 1300.41 260.665 1376.39 261.216C1397.27 261.368 1418.37 261.357 1438.87 267.042C1463.99 274.004 1487.04 284.464 1504.28 304.857C1516.56 319.373 1524.35 336.247 1527.84 354.837C1529.96 366.144 1531.18 377.687 1531.86 389.18C1532.52 400.53 1532.67 412 1531.83 423.326C1530.77 437.428 1529.21 451.579 1526.54 465.454C1522.29 487.544 1517.4 509.537 1511.96 531.364C1504.35 561.846 1494.81 591.738 1482.71 620.798C1473.56 642.786 1463.31 664.149 1449.18 683.415C1443.93 690.576 1438.05 697.281 1432.35 704.108C1429.49 707.535 1426.46 710.825 1423.4 714.08C1406.99 731.559 1388.01 745.728 1367.39 757.86C1342.83 772.313 1316.97 783.672 1289.21 790.235C1280.13 792.381 1270.65 793.814 1261.34 793.841C1172.53 794.107 1083.72 794 994.909 794C993.103 794 991.298 794 988.638 794C991.198 785.187 993.604 777.054 995.924 768.897C1004.64 738.239 1013.25 707.549 1022.07 676.918C1028.2 655.609 1034.63 634.385 1040.88 613.109C1044.59 600.492 1048.21 587.849 1051.92 574.811ZM1212.47 392.047C1205.21 417.644 1198.07 443.277 1190.66 468.83C1181.96 498.814 1172.9 528.693 1164.22 558.682C1153.2 596.74 1142.4 634.859 1131.53 672.959C1129.51 680.023 1127.63 687.125 1125.61 694.477C1137.45 695.008 1148.52 695.768 1159.6 695.913C1167.88 696.021 1176.16 695.067 1184.44 695.051C1210.65 694.999 1236.89 695.415 1262.95 691.947C1274.02 690.473 1285.19 689.07 1295.98 686.342C1319.24 680.464 1338.74 668.257 1354.63 650.021C1363.8 639.499 1371.56 628.18 1378.02 615.899C1389.03 594.957 1396.83 572.764 1403.43 550.112C1412 520.743 1419.66 491.216 1423.2 460.691C1424.96 445.466 1425.76 430.413 1422.96 415.332C1418.1 389.129 1403.94 374.211 1378.23 366.862C1362.07 362.243 1345.45 362.538 1329.07 362.272C1294.48 361.712 1259.86 362.668 1225.26 363.002C1225.09 363.003 1224.92 363.024 1224.76 363C1221.91 362.596 1220.65 363.952 1219.92 366.652C1217.69 374.911 1215.23 383.107 1212.47 392.047Z" fill="#005892"/>
<path d="M2048.08 274.347C2047.46 297.917 2042.75 320.076 2031.22 340.242C2023.21 354.245 2012 364.152 1994.29 363.026C1991.47 362.846 1988.63 362.975 1985.79 363.004C1954.18 363.332 1922.56 363.616 1890.95 364.024C1874.67 364.235 1858.39 364.807 1842.11 364.971C1816.56 365.227 1792.42 370.178 1770.43 384.076C1755.67 393.399 1745.16 405.854 1740.1 422.421C1726.5 466.893 1713.17 511.445 1699.96 556.035C1692.36 581.699 1685.21 607.495 1677.88 633.238C1672.26 652.962 1666.67 672.696 1661 692.676C1662.62 692.81 1663.76 692.977 1664.91 692.987C1705.19 693.333 1745.47 693.673 1785.75 693.991C1793.48 694.052 1801.23 694.402 1808.92 693.931C1818.85 693.324 1826.06 687.638 1831.92 680.016C1847.61 659.607 1854.84 635.353 1862.96 611.52C1865.56 603.896 1867.84 596.16 1870.23 588.466C1870.6 587.255 1870.8 585.989 1871.23 584.073C1839.57 584.073 1808.49 584.073 1776.77 584.073C1780.61 570.36 1785 557.656 1791.7 545.877C1797.67 535.399 1805.14 526.1 1815.73 520.009C1819.43 517.874 1824.03 516.188 1828.23 516.168C1882.89 515.916 1937.56 515.999 1992.22 516.011C1993.68 516.012 1995.13 516.172 1996.95 516.28C1991.94 533.686 1987.03 550.722 1982.13 567.763C1974.74 593.52 1967.89 619.45 1959.82 644.993C1951.35 671.775 1944.74 699.206 1932.25 724.655C1925.73 737.934 1915.94 748.371 1905.28 757.991C1895.12 767.158 1883.78 774.914 1871.1 780.435C1854.06 787.857 1836.57 793.103 1817.7 793.075C1801.25 793.051 1784.8 793.762 1768.35 793.987C1738.9 794.389 1709.46 794.837 1680.01 794.932C1664.4 794.983 1648.73 794.996 1633.18 793.791C1620.43 792.802 1607.59 793.368 1594.95 789.319C1569.56 781.181 1554.62 764.623 1548.87 738.701C1545.17 721.982 1549.08 706.261 1553.34 690.568C1562.09 658.343 1571.25 626.226 1580.47 594.131C1591.27 556.532 1602.2 518.968 1613.31 481.458C1619.61 460.172 1626.37 439.022 1632.95 417.819C1636.7 405.723 1640.08 393.488 1644.41 381.6C1649.75 366.928 1658.63 354.117 1667.93 341.733C1680.33 325.224 1695.06 310.826 1712.25 299.48C1734.23 284.973 1758.22 274.64 1783.8 267.882C1798.05 264.119 1812.39 263.054 1826.98 262.97C1870.26 262.72 1913.54 262.374 1956.82 261.984C1985.27 261.727 2013.72 261.329 2042.16 260.999C2044.15 260.976 2046.14 260.996 2049.22 260.996C2048.84 265.527 2048.48 269.704 2048.08 274.347Z" fill="#005892"/>
<path d="M953.196 1053H910.227L934.375 907.545H979.19C993.016 907.545 1004.43 910.481 1013.42 916.352C1022.42 922.223 1028.67 930.628 1032.17 941.565C1035.68 952.455 1036.15 965.476 1033.59 980.628C1031.08 995.779 1026.28 1008.75 1019.18 1019.55C1012.07 1030.34 1002.94 1038.63 991.761 1044.41C980.634 1050.14 967.779 1053 953.196 1053ZM925.497 1041.07H953.906C966.312 1041.07 977.154 1038.56 986.435 1033.54C995.715 1028.52 1003.27 1021.39 1009.09 1012.16C1014.91 1002.88 1018.87 991.873 1020.95 979.136C1023.04 966.636 1022.8 955.936 1020.24 947.034C1017.73 938.133 1012.88 931.314 1005.68 926.58C998.532 921.845 989.039 919.477 977.202 919.477H945.597L925.497 1041.07ZM1051.3 1053L1069.48 943.909H1082.19L1064.01 1053H1051.3ZM1080.42 924.946C1077.76 924.946 1075.51 924.046 1073.67 922.247C1071.87 920.448 1070.99 918.27 1071.04 915.713C1071.14 913.298 1072.11 911.215 1073.95 909.463C1075.85 907.664 1078.07 906.764 1080.63 906.764C1083.28 906.764 1085.53 907.687 1087.38 909.534C1089.22 911.333 1090.1 913.511 1090 916.068C1089.96 918.483 1088.99 920.566 1087.09 922.318C1085.2 924.07 1082.97 924.946 1080.42 924.946ZM1097.44 1053L1115.62 943.909H1127.91L1125.07 960.67H1125.99C1129.02 955.178 1133.55 950.751 1139.56 947.389C1145.62 943.98 1152.08 942.276 1158.95 942.276C1159.99 942.276 1161.15 942.299 1162.43 942.347C1163.71 942.347 1164.77 942.394 1165.62 942.489L1163.42 955.344C1162.86 955.249 1161.86 955.107 1160.44 954.918C1159.07 954.728 1157.53 954.634 1155.82 954.634C1150.14 954.634 1144.89 955.841 1140.06 958.256C1135.27 960.623 1131.25 963.914 1127.98 968.128C1124.76 972.342 1122.68 977.148 1121.73 982.545L1110.09 1053H1097.44ZM1209.43 1055.27C1199.25 1055.27 1190.84 1052.91 1184.22 1048.17C1177.59 1043.39 1172.95 1036.78 1170.29 1028.36C1167.64 1019.88 1167.24 1010.13 1169.09 999.094C1170.93 988.109 1174.58 978.355 1180.02 969.832C1185.47 961.262 1192.19 954.562 1200.2 949.733C1208.2 944.856 1216.89 942.418 1226.26 942.418C1232.18 942.418 1237.72 943.507 1242.88 945.685C1248.04 947.815 1252.42 951.106 1256.02 955.557C1259.67 959.96 1262.2 965.524 1263.62 972.247C1265.04 978.923 1264.99 986.83 1263.48 995.969L1262.48 1002.22H1177.25L1179.03 991.068H1251.4C1252.59 984.061 1252.25 977.763 1250.41 972.176C1248.56 966.589 1245.41 962.162 1240.96 958.895C1236.56 955.58 1231.09 953.923 1224.56 953.923C1217.88 953.923 1211.56 955.794 1205.59 959.534C1199.67 963.275 1194.66 968.152 1190.54 974.165C1186.46 980.131 1183.84 986.499 1182.65 993.27L1181.23 1001.65C1179.72 1010.88 1179.91 1018.62 1181.8 1024.88C1183.69 1031.08 1187.13 1035.77 1192.1 1038.94C1197.07 1042.11 1203.44 1043.7 1211.2 1043.7C1216.41 1043.7 1221.12 1042.89 1225.34 1041.28C1229.55 1039.67 1233.22 1037.52 1236.35 1034.82C1239.47 1032.07 1241.98 1029.07 1243.87 1025.8L1255.17 1029.7C1252.75 1034.3 1249.34 1038.54 1244.94 1042.42C1240.58 1046.3 1235.4 1049.43 1229.39 1051.79C1223.42 1054.11 1216.77 1055.27 1209.43 1055.27ZM1324.15 1055.27C1314.3 1055.27 1306.18 1052.83 1299.79 1047.96C1293.39 1043.08 1288.92 1036.4 1286.36 1027.93C1283.85 1019.41 1283.5 1009.75 1285.3 998.952C1287.1 987.967 1290.72 978.237 1296.16 969.761C1301.61 961.239 1308.33 954.562 1316.34 949.733C1324.38 944.856 1333.17 942.418 1342.68 942.418C1350.02 942.418 1356.42 943.838 1361.86 946.679C1367.31 949.473 1371.52 953.426 1374.5 958.54C1377.49 963.606 1378.91 969.525 1378.76 976.295H1365.98C1365.65 969.998 1363.35 964.695 1359.09 960.386C1354.88 956.078 1348.91 953.923 1341.19 953.923C1334.14 953.923 1327.6 955.817 1321.59 959.605C1315.58 963.346 1310.49 968.578 1306.32 975.301C1302.2 981.977 1299.43 989.719 1298.01 998.526C1296.5 1007.38 1296.64 1015.22 1298.44 1022.03C1300.24 1028.8 1303.46 1034.11 1308.1 1037.94C1312.78 1041.78 1318.7 1043.7 1325.85 1043.7C1330.73 1043.7 1335.32 1042.8 1339.63 1041C1343.94 1039.15 1347.75 1036.55 1351.07 1033.18C1354.38 1029.78 1356.91 1025.77 1358.66 1021.18H1371.45C1369.32 1027.81 1365.96 1033.68 1361.36 1038.8C1356.82 1043.91 1351.37 1047.93 1345.03 1050.87C1338.68 1053.8 1331.72 1055.27 1324.15 1055.27ZM1435.48 1055.27C1425.63 1055.27 1417.51 1052.83 1411.12 1047.96C1404.72 1043.08 1400.25 1036.4 1397.69 1027.93C1395.18 1019.41 1394.83 1009.75 1396.63 998.952C1398.43 987.967 1402.05 978.237 1407.49 969.761C1412.94 961.239 1419.66 954.562 1427.66 949.733C1435.71 944.856 1444.5 942.418 1454.01 942.418C1461.35 942.418 1467.74 943.838 1473.19 946.679C1478.63 949.473 1482.85 953.426 1485.83 958.54C1488.81 963.606 1490.23 969.525 1490.09 976.295H1477.31C1476.98 969.998 1474.68 964.695 1470.42 960.386C1466.21 956.078 1460.24 953.923 1452.52 953.923C1445.47 953.923 1438.93 955.817 1432.92 959.605C1426.91 963.346 1421.82 968.578 1417.65 975.301C1413.53 981.977 1410.76 989.719 1409.34 998.526C1407.82 1007.38 1407.97 1015.22 1409.77 1022.03C1411.56 1028.8 1414.78 1034.11 1419.42 1037.94C1424.11 1041.78 1430.03 1043.7 1437.18 1043.7C1442.06 1043.7 1446.65 1042.8 1450.96 1041C1455.27 1039.15 1459.08 1036.55 1462.39 1033.18C1465.71 1029.78 1468.24 1025.77 1469.99 1021.18H1482.78C1480.65 1027.81 1477.28 1033.68 1472.69 1038.8C1468.15 1043.91 1462.7 1047.93 1456.36 1050.87C1450.01 1053.8 1443.05 1055.27 1435.48 1055.27ZM1504.62 1053L1522.8 943.909H1535.51L1517.33 1053H1504.62ZM1533.74 924.946C1531.08 924.946 1528.84 924.046 1526.99 922.247C1525.19 920.448 1524.31 918.27 1524.36 915.713C1524.46 913.298 1525.43 911.215 1527.27 909.463C1529.17 907.664 1531.39 906.764 1533.95 906.764C1536.6 906.764 1538.85 907.687 1540.7 909.534C1542.54 911.333 1543.42 913.511 1543.32 916.068C1543.28 918.483 1542.31 920.566 1540.41 922.318C1538.52 924.07 1536.29 924.946 1533.74 924.946ZM1593.66 1055.27C1584.1 1055.27 1576.05 1052.86 1569.51 1048.03C1562.98 1043.15 1558.36 1036.4 1555.66 1027.79C1552.97 1019.17 1552.52 1009.23 1554.31 997.957C1556.11 986.973 1559.69 977.313 1565.04 968.98C1570.44 960.599 1577.07 954.089 1584.93 949.449C1592.79 944.761 1601.33 942.418 1610.56 942.418C1620.18 942.418 1628.23 944.856 1634.71 949.733C1641.25 954.61 1645.86 961.357 1648.56 969.974C1651.31 978.592 1651.78 988.559 1649.98 999.875C1648.18 1010.81 1644.58 1020.45 1639.19 1028.78C1633.79 1037.07 1627.16 1043.55 1619.3 1048.24C1611.49 1052.93 1602.94 1055.27 1593.66 1055.27ZM1593.8 1043.7C1601.57 1043.7 1608.48 1041.64 1614.54 1037.52C1620.65 1033.35 1625.69 1027.81 1629.67 1020.9C1633.65 1013.94 1636.32 1006.29 1637.7 997.957C1638.97 990.003 1638.83 982.688 1637.27 976.011C1635.71 969.335 1632.7 963.985 1628.25 959.96C1623.8 955.936 1617.88 953.923 1610.49 953.923C1602.78 953.923 1595.86 956.03 1589.75 960.244C1583.65 964.411 1578.6 969.998 1574.63 977.006C1570.65 983.966 1568 991.589 1566.67 999.875C1565.35 1007.88 1565.44 1015.19 1566.96 1021.82C1568.52 1028.45 1571.53 1033.75 1575.98 1037.73C1580.47 1041.71 1586.42 1043.7 1593.8 1043.7ZM1607.72 928.781L1631.23 896.537H1646.29L1619.23 928.781H1607.72ZM1692.86 984.818L1681.57 1053H1668.93L1687.11 943.909H1699.4L1696.56 961.026H1697.69C1701.1 955.438 1705.81 950.964 1711.83 947.602C1717.89 944.193 1724.92 942.489 1732.92 942.489C1740.21 942.489 1746.37 944.027 1751.38 947.105C1756.45 950.135 1760.05 954.61 1762.18 960.528C1764.36 966.447 1764.74 973.715 1763.32 982.332L1751.46 1053H1738.81L1750.46 983.114C1751.93 974.212 1750.63 967.157 1746.56 961.949C1742.53 956.693 1736.3 954.065 1727.88 954.065C1722.15 954.065 1716.82 955.296 1711.9 957.759C1707.02 960.221 1702.9 963.772 1699.54 968.412C1696.18 973.005 1693.95 978.473 1692.86 984.818ZM1960.67 953C1960.2 948.123 1959.11 943.578 1957.4 939.364C1955.7 935.102 1953.31 931.385 1950.23 928.213C1947.15 925.041 1943.34 922.555 1938.8 920.756C1934.3 918.956 1929 918.057 1922.89 918.057C1913.84 918.057 1905.08 920.448 1896.61 925.23C1888.18 930.012 1880.87 937.044 1874.66 946.324C1868.51 955.557 1864.32 966.873 1862.09 980.273C1859.91 993.388 1860.13 1004.59 1862.73 1013.87C1865.33 1023.15 1869.95 1030.25 1876.58 1035.17C1883.21 1040.05 1891.47 1042.49 1901.37 1042.49C1910.27 1042.49 1918.55 1040.5 1926.23 1036.52C1933.9 1032.5 1940.36 1026.79 1945.61 1019.41C1950.87 1012.02 1954.28 1003.26 1955.84 993.128L1959.82 994.477H1913.23L1915.43 982.545H1970.61L1968.41 994.477C1966.42 1006.93 1962.19 1017.68 1955.7 1026.72C1949.21 1035.77 1941.16 1042.75 1931.55 1047.67C1921.94 1052.55 1911.48 1054.99 1900.16 1054.99C1887.47 1054.99 1876.86 1051.93 1868.34 1045.83C1859.87 1039.67 1853.92 1031.01 1850.51 1019.83C1847.11 1008.66 1846.68 995.472 1849.24 980.273C1851.04 968.862 1854.21 958.563 1858.75 949.378C1863.3 940.192 1868.89 932.356 1875.51 925.869C1882.19 919.335 1889.62 914.316 1897.82 910.812C1906.05 907.309 1914.77 905.557 1923.95 905.557C1931.91 905.557 1938.99 906.812 1945.19 909.321C1951.39 911.83 1956.65 915.287 1960.96 919.69C1965.26 924.046 1968.53 929.089 1970.76 934.818C1973.03 940.5 1974.21 946.561 1974.31 953H1960.67ZM2033.06 1055.27C2022.88 1055.27 2014.48 1052.91 2007.85 1048.17C2001.22 1043.39 1996.58 1036.78 1993.93 1028.36C1991.28 1019.88 1990.87 1010.13 1992.72 999.094C1994.57 988.109 1998.21 978.355 2003.66 969.832C2009.1 961.262 2015.83 954.562 2023.83 949.733C2031.83 944.856 2040.52 942.418 2049.89 942.418C2055.81 942.418 2061.35 943.507 2066.51 945.685C2071.67 947.815 2076.05 951.106 2079.65 955.557C2083.3 959.96 2085.83 965.524 2087.25 972.247C2088.67 978.923 2088.62 986.83 2087.11 995.969L2086.12 1002.22H2000.89L2002.66 991.068H2075.04C2076.22 984.061 2075.89 977.763 2074.04 972.176C2072.19 966.589 2069.05 962.162 2064.6 958.895C2060.19 955.58 2054.72 953.923 2048.19 953.923C2041.51 953.923 2035.19 955.794 2029.23 959.534C2023.31 963.275 2018.29 968.152 2014.17 974.165C2010.1 980.131 2007.47 986.499 2006.29 993.27L2004.87 1001.65C2003.35 1010.88 2003.54 1018.62 2005.43 1024.88C2007.33 1031.08 2010.76 1035.77 2015.73 1038.94C2020.7 1042.11 2027.07 1043.7 2034.84 1043.7C2040.04 1043.7 2044.76 1042.89 2048.97 1041.28C2053.18 1039.67 2056.85 1037.52 2059.98 1034.82C2063.1 1032.07 2065.61 1029.07 2067.51 1025.8L2078.8 1029.7C2076.38 1034.3 2072.98 1038.54 2068.57 1042.42C2064.22 1046.3 2059.03 1049.43 2053.02 1051.79C2047.05 1054.11 2040.4 1055.27 2033.06 1055.27ZM2129.39 984.818L2118.09 1053H2105.45L2123.63 943.909H2135.92L2133.08 961.026H2134.22C2137.62 955.438 2142.34 950.964 2148.35 947.602C2154.41 944.193 2161.44 942.489 2169.44 942.489C2176.73 942.489 2182.89 944.027 2187.91 947.105C2192.97 950.135 2196.57 954.61 2198.7 960.528C2200.88 966.447 2201.26 973.715 2199.84 982.332L2187.98 1053H2175.34L2186.99 983.114C2188.45 974.212 2187.15 967.157 2183.08 961.949C2179.05 956.693 2172.83 954.065 2164.4 954.065C2158.67 954.065 2153.34 955.296 2148.42 957.759C2143.54 960.221 2139.42 963.772 2136.06 968.412C2132.7 973.005 2130.47 978.473 2129.39 984.818ZM2265.09 1055.27C2254.91 1055.27 2246.51 1052.91 2239.88 1048.17C2233.25 1043.39 2228.61 1036.78 2225.96 1028.36C2223.31 1019.88 2222.9 1010.13 2224.75 999.094C2226.6 988.109 2230.24 978.355 2235.69 969.832C2241.13 961.262 2247.86 954.562 2255.86 949.733C2263.86 944.856 2272.55 942.418 2281.92 942.418C2287.84 942.418 2293.38 943.507 2298.54 945.685C2303.71 947.815 2308.08 951.106 2311.68 955.557C2315.33 959.96 2317.86 965.524 2319.28 972.247C2320.7 978.923 2320.66 986.83 2319.14 995.969L2318.15 1002.22H2232.92L2234.69 991.068H2307.07C2308.25 984.061 2307.92 977.763 2306.07 972.176C2304.23 966.589 2301.08 962.162 2296.63 958.895C2292.22 955.58 2286.75 953.923 2280.22 953.923C2273.54 953.923 2267.22 955.794 2261.26 959.534C2255.34 963.275 2250.32 968.152 2246.2 974.165C2242.13 980.131 2239.5 986.499 2238.32 993.27L2236.9 1001.65C2235.38 1010.88 2235.57 1018.62 2237.46 1024.88C2239.36 1031.08 2242.79 1035.77 2247.76 1038.94C2252.73 1042.11 2259.1 1043.7 2266.87 1043.7C2272.08 1043.7 2276.79 1042.89 2281 1041.28C2285.22 1039.67 2288.88 1037.52 2292.01 1034.82C2295.13 1032.07 2297.64 1029.07 2299.54 1025.8L2310.83 1029.7C2308.42 1034.3 2305.01 1038.54 2300.6 1042.42C2296.25 1046.3 2291.06 1049.43 2285.05 1051.79C2279.08 1054.11 2272.43 1055.27 2265.09 1055.27ZM2337.48 1053L2355.66 943.909H2367.95L2365.11 960.67H2366.03C2369.06 955.178 2373.59 950.751 2379.6 947.389C2385.66 943.98 2392.12 942.276 2398.99 942.276C2400.03 942.276 2401.19 942.299 2402.47 942.347C2403.75 942.347 2404.81 942.394 2405.66 942.489L2403.46 955.344C2402.89 955.249 2401.9 955.107 2400.48 954.918C2399.11 954.728 2397.57 954.634 2395.86 954.634C2390.18 954.634 2384.93 955.841 2380.1 958.256C2375.31 960.623 2371.29 963.914 2368.02 968.128C2364.8 972.342 2362.72 977.148 2361.77 982.545L2350.12 1053H2337.48ZM2439.15 1055.49C2432.57 1055.49 2426.77 1054.21 2421.75 1051.65C2416.73 1049.05 2412.99 1045.31 2410.53 1040.43C2408.11 1035.5 2407.45 1029.54 2408.54 1022.53C2409.49 1017.13 2411.29 1012.59 2413.94 1008.89C2416.64 1005.2 2420.05 1002.17 2424.17 999.804C2428.28 997.389 2433.02 995.495 2438.37 994.122C2443.72 992.749 2449.54 991.707 2455.84 990.997C2462 990.24 2467.25 989.577 2471.61 989.009C2475.96 988.44 2479.35 987.541 2481.76 986.31C2484.18 985.079 2485.62 983.09 2486.1 980.344L2486.52 977.787C2487.75 970.353 2486.62 964.506 2483.11 960.244C2479.61 955.936 2473.74 953.781 2465.5 953.781C2457.64 953.781 2450.82 955.533 2445.05 959.037C2439.32 962.493 2435.06 966.542 2432.26 971.182L2421.04 966.849C2424.45 960.884 2428.64 956.125 2433.61 952.574C2438.58 948.975 2443.91 946.395 2449.59 944.832C2455.27 943.223 2460.88 942.418 2466.42 942.418C2470.59 942.418 2474.83 942.962 2479.14 944.051C2483.45 945.14 2487.3 947.034 2490.71 949.733C2494.17 952.384 2496.7 956.101 2498.31 960.884C2499.97 965.618 2500.21 971.632 2499.02 978.923L2486.67 1053H2474.02L2476.94 1035.74H2476.15C2474.17 1038.96 2471.42 1042.09 2467.92 1045.12C2464.46 1048.15 2460.32 1050.63 2455.49 1052.57C2450.66 1054.52 2445.21 1055.49 2439.15 1055.49ZM2442.35 1043.91C2449.07 1043.91 2455.16 1042.42 2460.6 1039.43C2466.09 1036.45 2470.59 1032.5 2474.09 1027.57C2477.65 1022.6 2479.92 1017.13 2480.91 1011.17L2483.54 995.401C2482.5 996.3 2480.79 997.105 2478.43 997.815C2476.11 998.526 2473.48 999.165 2470.54 999.733C2467.66 1000.25 2464.74 1000.7 2461.81 1001.08C2458.92 1001.46 2456.36 1001.79 2454.14 1002.08C2447.84 1002.83 2442.35 1004.02 2437.66 1005.63C2433.02 1007.24 2429.3 1009.46 2426.51 1012.3C2423.72 1015.1 2421.96 1018.7 2421.25 1023.1C2420.16 1029.73 2421.61 1034.87 2425.59 1038.51C2429.61 1042.11 2435.2 1043.91 2442.35 1043.91ZM2557.08 907.545L2532.94 1053H2520.29L2544.44 907.545H2557.08ZM946.662 1297.27C937.713 1297.27 930.256 1294.91 924.29 1290.17C918.324 1285.44 914.157 1278.83 911.79 1270.36C909.422 1261.88 909.162 1252.01 911.009 1240.74C912.902 1229.52 916.43 1219.69 921.591 1211.26C926.799 1202.79 933.168 1196.21 940.696 1191.52C948.272 1186.79 956.534 1184.42 965.483 1184.42C972.159 1184.42 977.486 1185.6 981.463 1187.97C985.488 1190.29 988.542 1193.18 990.625 1196.63C992.708 1200.09 994.2 1203.45 995.099 1206.72H996.236L1005.75 1149.55H1018.47L994.318 1295H982.031L985.44 1274.76H983.878C981.842 1278.07 979.167 1281.48 975.852 1284.99C972.585 1288.44 968.561 1291.35 963.778 1293.72C958.996 1296.09 953.291 1297.27 946.662 1297.27ZM949.432 1285.7C956.487 1285.7 962.855 1283.78 968.537 1279.94C974.266 1276.06 979.048 1270.73 982.884 1263.96C986.766 1257.14 989.418 1249.33 990.838 1240.53C992.306 1231.81 992.282 1224.12 990.767 1217.44C989.252 1210.72 986.316 1205.46 981.96 1201.68C977.604 1197.84 971.851 1195.92 964.702 1195.92C957.457 1195.92 951.018 1197.91 945.384 1201.89C939.749 1205.82 935.085 1211.15 931.392 1217.87C927.746 1224.59 925.213 1232.14 923.793 1240.53C922.42 1249 922.42 1256.65 923.793 1263.47C925.166 1270.28 927.959 1275.71 932.173 1279.73C936.435 1283.71 942.188 1285.7 949.432 1285.7ZM1074.08 1297.27C1063.9 1297.27 1055.49 1294.91 1048.86 1290.17C1042.23 1285.39 1037.59 1278.78 1034.94 1270.36C1032.29 1261.88 1031.89 1252.13 1033.74 1241.09C1035.58 1230.11 1039.23 1220.36 1044.67 1211.83C1050.12 1203.26 1056.84 1196.56 1064.84 1191.73C1072.85 1186.86 1081.53 1184.42 1090.91 1184.42C1096.83 1184.42 1102.37 1185.51 1107.53 1187.68C1112.69 1189.82 1117.07 1193.11 1120.67 1197.56C1124.31 1201.96 1126.85 1207.52 1128.27 1214.25C1129.69 1220.92 1129.64 1228.83 1128.12 1237.97L1127.13 1244.22H1041.9L1043.68 1233.07H1116.05C1117.23 1226.06 1116.9 1219.76 1115.06 1214.18C1113.21 1208.59 1110.06 1204.16 1105.61 1200.89C1101.21 1197.58 1095.74 1195.92 1089.2 1195.92C1082.53 1195.92 1076.21 1197.79 1070.24 1201.53C1064.32 1205.27 1059.3 1210.15 1055.18 1216.16C1051.11 1222.13 1048.48 1228.5 1047.3 1235.27L1045.88 1243.65C1044.37 1252.88 1044.55 1260.62 1046.45 1266.88C1048.34 1273.08 1051.78 1277.77 1056.75 1280.94C1061.72 1284.11 1068.09 1285.7 1075.85 1285.7C1081.06 1285.7 1085.77 1284.89 1089.99 1283.28C1094.2 1281.67 1097.87 1279.52 1100.99 1276.82C1104.12 1274.07 1106.63 1271.07 1108.52 1267.8L1119.82 1271.7C1117.4 1276.3 1113.99 1280.54 1109.59 1284.42C1105.23 1288.3 1100.05 1291.43 1094.03 1293.79C1088.07 1296.11 1081.42 1297.27 1074.08 1297.27ZM1218.7 1161.48L1220.69 1149.55H1326.15L1324.17 1161.48H1278.07L1255.91 1295H1242.63L1264.79 1161.48H1218.7ZM1317.95 1295L1336.13 1185.91H1348.42L1345.58 1202.67H1346.5C1349.53 1197.18 1354.05 1192.75 1360.07 1189.39C1366.13 1185.98 1372.59 1184.28 1379.46 1184.28C1380.5 1184.28 1381.66 1184.3 1382.94 1184.35C1384.22 1184.35 1385.28 1184.39 1386.13 1184.49L1383.93 1197.34C1383.36 1197.25 1382.37 1197.11 1380.95 1196.92C1379.58 1196.73 1378.04 1196.63 1376.33 1196.63C1370.65 1196.63 1365.39 1197.84 1360.56 1200.26C1355.78 1202.62 1351.76 1205.91 1348.49 1210.13C1345.27 1214.34 1343.19 1219.15 1342.24 1224.55L1330.59 1295H1317.95ZM1419.62 1297.49C1413.04 1297.49 1407.24 1296.21 1402.22 1293.65C1397.2 1291.05 1393.46 1287.31 1391 1282.43C1388.58 1277.5 1387.92 1271.54 1389.01 1264.53C1389.96 1259.13 1391.76 1254.59 1394.41 1250.89C1397.11 1247.2 1400.51 1244.17 1404.63 1241.8C1408.75 1239.39 1413.49 1237.5 1418.84 1236.12C1424.19 1234.75 1430.01 1233.71 1436.31 1233C1442.47 1232.24 1447.72 1231.58 1452.08 1231.01C1456.43 1230.44 1459.82 1229.54 1462.23 1228.31C1464.65 1227.08 1466.09 1225.09 1466.57 1222.34L1466.99 1219.79C1468.22 1212.35 1467.09 1206.51 1463.58 1202.24C1460.08 1197.94 1454.21 1195.78 1445.97 1195.78C1438.11 1195.78 1431.29 1197.53 1425.51 1201.04C1419.79 1204.49 1415.52 1208.54 1412.73 1213.18L1401.51 1208.85C1404.92 1202.88 1409.11 1198.12 1414.08 1194.57C1419.05 1190.98 1424.38 1188.39 1430.06 1186.83C1435.74 1185.22 1441.35 1184.42 1446.89 1184.42C1451.06 1184.42 1455.3 1184.96 1459.61 1186.05C1463.91 1187.14 1467.77 1189.03 1471.18 1191.73C1474.64 1194.38 1477.17 1198.1 1478.78 1202.88C1480.44 1207.62 1480.68 1213.63 1479.49 1220.92L1467.13 1295H1454.49L1457.4 1277.74H1456.62C1454.63 1280.96 1451.89 1284.09 1448.38 1287.12C1444.93 1290.15 1440.78 1292.63 1435.96 1294.57C1431.13 1296.52 1425.68 1297.49 1419.62 1297.49ZM1422.82 1285.91C1429.54 1285.91 1435.62 1284.42 1441.07 1281.43C1446.56 1278.45 1451.06 1274.5 1454.56 1269.57C1458.11 1264.6 1460.39 1259.13 1461.38 1253.17L1464.01 1237.4C1462.97 1238.3 1461.26 1239.11 1458.9 1239.82C1456.58 1240.53 1453.95 1241.16 1451.01 1241.73C1448.12 1242.25 1445.21 1242.7 1442.28 1243.08C1439.39 1243.46 1436.83 1243.79 1434.61 1244.08C1428.31 1244.83 1422.82 1246.02 1418.13 1247.63C1413.49 1249.24 1409.77 1251.46 1406.98 1254.3C1404.18 1257.1 1402.43 1260.7 1401.72 1265.1C1400.63 1271.73 1402.08 1276.87 1406.05 1280.51C1410.08 1284.11 1415.67 1285.91 1422.82 1285.91ZM1444.05 1170.78L1467.56 1138.54H1482.62L1455.56 1170.78H1444.05ZM1563.83 1185.91L1561.99 1196.92H1508.43L1510.21 1185.91H1563.83ZM1508.79 1295L1529.6 1169.93C1530.55 1164.06 1532.7 1159.11 1536.06 1155.09C1539.47 1151.06 1543.54 1148.01 1548.28 1145.92C1553.01 1143.84 1557.87 1142.8 1562.84 1142.8C1566.15 1142.8 1568.85 1143.08 1570.93 1143.65C1573.02 1144.17 1574.65 1144.69 1575.83 1145.21L1570.44 1156.29C1569.49 1156.01 1568.35 1155.68 1567.03 1155.3C1565.75 1154.92 1564.07 1154.73 1561.99 1154.73C1556.49 1154.73 1551.99 1156.27 1548.49 1159.35C1544.99 1162.42 1542.74 1166.83 1541.74 1172.56L1521.43 1295H1508.79ZM1571.02 1295L1589.2 1185.91H1601.92L1583.74 1295H1571.02ZM1600.14 1166.95C1597.49 1166.95 1595.24 1166.05 1593.39 1164.25C1591.6 1162.45 1590.72 1160.27 1590.77 1157.71C1590.86 1155.3 1591.83 1153.21 1593.68 1151.46C1595.57 1149.66 1597.8 1148.76 1600.36 1148.76C1603.01 1148.76 1605.26 1149.69 1607.1 1151.53C1608.95 1153.33 1609.82 1155.51 1609.73 1158.07C1609.68 1160.48 1608.71 1162.57 1606.82 1164.32C1604.92 1166.07 1602.7 1166.95 1600.14 1166.95ZM1659.5 1297.27C1649.65 1297.27 1641.53 1294.83 1635.14 1289.96C1628.75 1285.08 1624.27 1278.4 1621.72 1269.93C1619.21 1261.41 1618.85 1251.75 1620.65 1240.95C1622.45 1229.97 1626.07 1220.24 1631.52 1211.76C1636.96 1203.24 1643.68 1196.56 1651.69 1191.73C1659.74 1186.86 1668.52 1184.42 1678.04 1184.42C1685.38 1184.42 1691.77 1185.84 1697.21 1188.68C1702.66 1191.47 1706.87 1195.43 1709.85 1200.54C1712.84 1205.61 1714.26 1211.52 1714.12 1218.3H1701.33C1701 1212 1698.7 1206.7 1694.44 1202.39C1690.23 1198.08 1684.26 1195.92 1676.54 1195.92C1669.49 1195.92 1662.96 1197.82 1656.94 1201.61C1650.93 1205.35 1645.84 1210.58 1641.67 1217.3C1637.55 1223.98 1634.78 1231.72 1633.36 1240.53C1631.85 1249.38 1631.99 1257.22 1633.79 1264.03C1635.59 1270.8 1638.81 1276.11 1643.45 1279.94C1648.14 1283.78 1654.05 1285.7 1661.2 1285.7C1666.08 1285.7 1670.67 1284.8 1674.98 1283C1679.29 1281.15 1683.1 1278.55 1686.42 1275.18C1689.73 1271.78 1692.26 1267.77 1694.02 1263.18H1706.8C1704.67 1269.81 1701.31 1275.68 1696.72 1280.8C1692.17 1285.91 1686.72 1289.93 1680.38 1292.87C1674.04 1295.8 1667.08 1297.27 1659.5 1297.27ZM1771.4 1297.27C1761.83 1297.27 1753.78 1294.86 1747.25 1290.03C1740.71 1285.15 1736.1 1278.4 1733.4 1269.79C1730.7 1261.17 1730.25 1251.23 1732.05 1239.96C1733.85 1228.97 1737.42 1219.31 1742.77 1210.98C1748.17 1202.6 1754.8 1196.09 1762.66 1191.45C1770.52 1186.76 1779.07 1184.42 1788.3 1184.42C1797.91 1184.42 1805.96 1186.86 1812.45 1191.73C1818.98 1196.61 1823.6 1203.36 1826.3 1211.97C1829.04 1220.59 1829.52 1230.56 1827.72 1241.88C1825.92 1252.81 1822.32 1262.45 1816.92 1270.78C1811.52 1279.07 1804.89 1285.55 1797.03 1290.24C1789.22 1294.93 1780.68 1297.27 1771.4 1297.27ZM1771.54 1285.7C1779.3 1285.7 1786.22 1283.64 1792.28 1279.52C1798.38 1275.35 1803.43 1269.81 1807.4 1262.9C1811.38 1255.94 1814.06 1248.29 1815.43 1239.96C1816.71 1232 1816.57 1224.69 1815 1218.01C1813.44 1211.34 1810.43 1205.98 1805.98 1201.96C1801.53 1197.94 1795.61 1195.92 1788.23 1195.92C1780.51 1195.92 1773.6 1198.03 1767.49 1202.24C1761.38 1206.41 1756.34 1212 1752.36 1219.01C1748.38 1225.97 1745.73 1233.59 1744.41 1241.88C1743.08 1249.88 1743.18 1257.19 1744.69 1263.82C1746.25 1270.45 1749.26 1275.75 1753.71 1279.73C1758.21 1283.71 1764.15 1285.7 1771.54 1285.7Z" fill="black"/>
</svg>
