<svg width="324" height="324" viewBox="0 0 324 324" fill="none" xmlns="http://www.w3.org/2000/svg">
<rect width="324" height="324" rx="50" fill="white"/>
<path d="M252.662 156.54C257.068 126.617 257.857 96.8509 247.15 67.9477C243.844 59.0237 239.096 50.6338 234.455 40.8294C237.184 42.7748 239.514 44.0175 241.324 45.7911C259.71 63.8065 267.935 86.6549 270.967 111.434C272.677 125.406 272.334 139.63 272.757 154.979C272.6 159.524 272.6 162.832 272.6 166.139C272.968 166.203 273.337 166.267 273.705 166.331C274.242 162.595 274.778 158.858 275.315 155.122C280.031 124.39 279.943 93.9988 268.506 64.5067C266.509 59.3569 263.782 54.49 262.358 48.3176C264.141 49.9498 266.258 51.3385 267.655 53.2525C280.044 70.2301 286.715 89.5603 289.275 110.152C295.613 161.132 283.439 207.457 252.882 248.84C251.234 251.072 249.014 252.884 245.934 256.05C250.957 242.272 255.296 230.369 259.636 218.466C258.951 218.186 258.266 217.905 257.581 217.625C256.846 219.095 256.035 220.533 255.389 222.041C246.897 241.855 236.989 260.864 222.406 276.965C214.921 285.229 205.042 289.364 192.683 292.13C216.378 268.616 229.397 241.328 237.748 211.573C237.158 211.263 236.567 210.954 235.977 210.644C233.21 216.526 230.56 222.467 227.656 228.281C216.356 250.902 202.575 271.597 181.206 286.09C171.419 292.728 161.241 298.627 147.721 296.214C184.979 274.112 202.035 239.082 212.949 199.963C196.875 233.05 179.774 265.292 144.708 282.618C137.411 286.224 129.229 288.04 121.455 290.681C121.164 289.936 120.873 289.192 120.582 288.447C121.562 287.828 122.491 287.101 123.531 286.607C142.588 277.547 157.745 263.75 169.271 246.428C204.632 193.285 215.411 136.071 194.498 74.7639C187.148 53.2169 173.642 35.8905 151.67 26C154.636 26.402 157.726 26.4033 160.551 27.2681C188.866 35.936 205.771 56.0592 215.331 83.0314C222.997 104.662 224.761 127.223 224.19 150.006C224.102 153.49 223.415 156.958 223.57 160.484C232.128 136.492 234.272 72.7729 203.728 35.707C205.81 36.6422 208.113 37.2651 209.94 38.5606C229.913 52.7259 240.002 73.1126 245.648 96.1436C250.406 115.556 251.332 135.318 250.137 156.387C249.941 159.947 249.941 162.328 249.941 164.71C250.414 164.772 250.886 164.834 251.359 164.895C251.793 162.11 252.228 159.325 252.662 156.54Z" fill="#070707"/>
<path d="M58.4587 153.765C63.3041 126.447 72.9933 101.925 91.1208 81.3207C101.625 69.3817 113.992 60.0068 130.193 57.5396C150.713 54.4147 168.798 65.7208 179.399 87.9661C189.88 109.959 192.035 133.236 189.037 157.088C184.837 190.496 173.239 220.693 148.352 244.374C125.642 265.982 97.5311 268.08 79.7131 248.843C72.5538 241.114 66.9069 231.219 63.0627 221.341C54.6565 199.74 54.5839 177.081 58.4587 153.765ZM107.907 194.894C111.012 192.894 114.116 190.893 117.47 188.732C114.48 186.128 111.8 183.793 108.693 181.087C107.92 186.163 107.265 190.463 106.053 195.188C106.089 195.74 106.126 196.293 106.162 196.845C106.421 196.245 106.679 195.645 107.907 194.894ZM138.599 243.935C139.364 242.084 145.418 241.193 139.365 237.157C138.449 234.007 137.533 230.858 136.619 227.709C134.4 220.064 132.915 212.102 129.785 204.85C125.578 195.105 117.566 194.001 111.425 202.611C105.64 210.724 101.572 220.063 96.0335 229.325C95.7864 230.123 95.5395 230.92 94.5553 232.596C96.2201 235.702 97.8849 238.807 99.6795 242.766C100.621 243.804 101.563 244.842 102.655 246.574C103.026 246.84 103.398 247.106 103.988 248.231C105.306 249.373 106.623 250.515 108.187 252.427C108.654 252.613 109.121 252.799 109.371 254.025C108.007 253.9 106.539 254.061 105.295 253.607C89.2498 247.75 77.9626 236.925 72.8338 220.573C62.1374 186.469 66.0176 153.004 78.5607 120.203C86.5249 99.3759 98.6601 81.7501 119.148 71.255C122.996 69.284 127.243 68.0926 132.172 66.2106C131.742 68.1594 131.77 68.5138 131.629 68.6029C118.42 76.9716 116.161 82.0944 119.39 96.2811C120.593 101.565 121.184 107.073 123.098 112.08C124.359 115.383 127.551 120.386 129.755 120.322C133.087 120.226 137.461 117.084 139.36 113.99C144.644 105.378 148.812 96.0876 153.571 87.1452C155.265 83.9625 157.391 81.0098 159.366 77.8786C169.543 86.1556 169.838 87.3991 164.603 97.6305C163.207 100.357 161.714 103.036 160.393 105.798C156.937 113.025 152.246 120.001 150.587 127.629C149.441 132.899 151.732 139.461 154.178 144.648C154.943 146.27 161.234 145.601 164.971 145.433C170.129 145.201 175.264 144.45 180.692 144.988C180.692 147.029 180.692 149.069 180.692 151.11C181.17 151.148 181.647 151.185 182.124 151.223C182.334 148.617 182.543 146.011 182.815 142.149C182.837 138.607 182.995 135.06 182.859 131.524C182.2 114.369 179.409 97.7019 170.452 82.6881C157.547 61.0556 135.214 55.4049 114.098 69.1408C106.708 73.9481 99.7665 80.1485 94.2611 87.0258C70.5778 116.611 60.9527 151.057 61.4524 188.538C61.6782 205.487 64.922 221.882 73.9249 236.564C82.4077 250.398 94.0714 258.859 112.452 256.886C117.167 255.107 121.882 253.329 127.522 251.502C128.745 250.625 129.969 249.748 132.066 248.712C133.98 247.183 135.894 245.653 138.599 243.935ZM167.757 167.133C161.964 168.98 154.49 169.234 150.827 173.1C146.753 177.4 143.817 185.273 144.525 191.087C145.979 203.017 150.196 214.611 153.594 227.558C167.264 208.492 175.115 188.667 179.377 166.942C175.521 166.942 172.266 166.942 167.757 167.133ZM97.9173 115.893C94.7834 125.384 91.6495 134.875 87.8843 146.278C93.4284 145.852 98.3563 146.966 100.638 145.004C106.372 140.073 110.626 133.496 109.365 125.23C108.247 117.902 106.53 110.666 104.656 101.275C101.953 107.007 100.102 110.934 97.9173 115.893ZM91.005 168.2C89.2435 168.2 87.482 168.2 86.4131 168.2C86.4131 182.761 86.4131 196.824 86.4131 210.886C87.2183 211.015 88.0235 211.143 88.8287 211.271C92.2734 204.154 96.3064 197.252 99.0039 189.863C101.93 181.849 97.9594 171.101 91.005 168.2ZM118.11 149.189C117.35 156.784 115.978 164.395 116.168 171.966C116.232 174.538 119.911 178.55 122.524 179.096C125.11 179.637 129.314 177.373 131.277 175.047C137.719 167.412 139.33 158.034 137.334 148.51C136.627 145.138 133.306 140.189 130.709 139.879C127.523 139.497 123.782 143.123 120.423 145.24C119.537 145.799 119.17 147.183 118.11 149.189ZM114.613 137.84C117.991 135.107 121.37 132.373 124.8 129.598C121.488 123.324 118.183 117.064 114.859 110.768C114.055 119.964 113.281 128.654 112.597 137.351C112.572 137.674 113.432 138.066 114.613 137.84ZM101.497 155.607C97.5563 156.106 93.6157 156.605 90.1727 157.041C95.067 160.71 99.9489 164.369 105.249 168.341C105.962 163.218 106.674 158.097 107.518 152.029C105.193 153.469 103.836 154.309 101.497 155.607ZM142.864 127.035C143.56 124.405 144.256 121.774 144.951 119.144C144.414 118.94 143.877 118.736 143.339 118.532C139.879 122.382 136.418 126.232 132.533 130.553C135.646 131.939 138.228 133.088 141.327 134.468C141.834 131.653 142.156 129.869 142.864 127.035ZM136.459 189.561C136.459 186.938 136.459 184.314 136.459 180.803C132.385 183.45 129.432 185.369 125.831 187.709C129.458 190.541 132.131 192.628 135.432 195.204C135.884 193.207 136.168 191.952 136.459 189.561ZM149.311 150.307C148.104 153.347 146.896 156.387 145.688 159.427C146.423 159.844 147.158 160.262 147.894 160.679C151.602 158.52 155.311 156.361 159.995 153.634C155.646 152.348 152.977 151.559 149.311 150.307ZM113.623 105.655C113.463 105.504 113.301 105.233 113.143 105.236C112.981 105.239 112.67 105.535 112.691 105.658C112.794 106.257 112.986 106.841 113.146 107.431C113.344 107.059 113.543 106.688 113.623 105.655Z" fill="#F4F4F4"/>
<path d="M180.409 143.921C175.264 144.45 170.129 145.201 164.971 145.433C161.234 145.601 154.943 146.27 154.178 144.648C151.731 139.461 149.44 132.899 150.587 127.629C152.246 120.001 156.936 113.025 160.392 105.798C161.713 103.036 163.207 100.357 164.602 97.6305C169.837 87.399 169.543 86.1555 159.366 77.8785C157.39 81.0098 155.264 83.9624 153.57 87.1452C148.811 96.0875 144.644 105.378 139.36 113.99C137.461 117.084 133.086 120.226 129.755 120.322C127.551 120.386 124.359 115.383 123.097 112.08C121.184 107.073 120.592 101.565 119.39 96.2811C116.16 82.0943 118.42 76.9715 131.629 68.6028C131.769 68.5137 131.742 68.1593 132.172 66.2106C127.243 68.0925 122.996 69.2839 119.148 71.255C98.6598 81.7501 86.5246 99.3759 78.5604 120.203C66.0172 153.004 62.1371 186.469 72.8334 220.573C77.9623 236.925 89.2495 247.75 105.294 253.607C106.538 254.061 108.007 253.9 109.915 253.833C110.738 254.689 111.017 255.737 111.296 256.786C94.0711 258.859 82.4074 250.398 73.9245 236.564C64.9216 221.882 61.6779 205.487 61.452 188.538C60.9524 151.057 70.5774 116.611 94.2608 87.0258C99.7662 80.1484 106.708 73.948 114.098 69.1407C135.213 55.4048 157.547 61.0555 170.452 82.688C179.408 97.7018 182.2 114.369 182.859 131.524C182.994 135.06 182.837 138.607 182.376 142.758C181.428 143.552 180.919 143.737 180.409 143.921Z" fill="#0B0B0B"/>
<path d="M111.875 256.836C111.018 255.737 110.739 254.689 110.024 253.313C109.121 252.799 108.654 252.613 108.467 251.868C109.882 248.173 109.425 247.813 103.77 247.372C103.398 247.106 103.026 246.84 102.586 245.715C101.698 243.704 104.206 239.197 99.5498 241.913C97.8851 238.807 96.2203 235.702 95.3516 232.118C96.3481 230.714 96.5486 229.788 96.749 228.862C101.572 220.063 105.64 210.725 111.425 202.611C117.566 194.001 125.578 195.105 129.785 204.85C132.915 212.102 134.4 220.064 136.619 227.709C137.533 230.858 138.45 234.007 139.262 238.239C138.709 240.922 138.259 242.523 137.808 244.124C135.894 245.653 133.98 247.183 131.103 248.753C128.96 249.713 127.778 250.631 126.597 251.55C121.882 253.329 117.167 255.107 111.875 256.836Z" fill="#030303"/>
<path d="M168.383 167.037C172.265 166.942 175.52 166.942 179.376 166.942C175.114 188.667 167.262 208.492 153.593 227.558C150.194 214.611 145.978 203.017 144.524 191.087C143.815 185.273 146.751 177.4 150.826 173.099C154.488 169.234 161.963 168.98 168.383 167.037Z" fill="#070707"/>
<path d="M98.0823 115.376C100.1 110.934 101.952 107.007 104.654 101.275C106.529 110.666 108.245 117.902 109.363 125.23C110.624 133.496 106.37 140.073 100.636 145.004C98.3548 146.966 93.4269 145.852 87.8828 146.278C91.648 134.875 94.7819 125.384 98.0823 115.376Z" fill="#0C0C0C"/>
<path d="M91.5968 168.332C97.9584 171.101 101.929 181.849 99.0029 189.863C96.3054 197.252 92.2724 204.154 88.8277 211.271C88.0225 211.143 87.2173 211.015 86.4121 210.887C86.4121 196.824 86.4121 182.761 86.4121 168.2C87.481 168.2 89.2425 168.2 91.5968 168.332Z" fill="#090909"/>
<path d="M118.338 148.688C119.171 147.183 119.537 145.799 120.423 145.24C123.783 143.123 127.523 139.497 130.709 139.879C133.306 140.189 136.628 145.138 137.334 148.51C139.33 158.034 137.719 167.412 131.277 175.047C129.315 177.373 125.11 179.637 122.525 179.096C119.911 178.55 116.232 174.538 116.168 171.966C115.979 164.395 117.35 156.784 118.338 148.688ZM132.212 148.07C129.138 144.059 126.065 145.27 123.538 148.46C118.864 154.365 117.54 161.173 119.665 168.385C121.374 174.182 125.725 175.066 129.5 170.317C134.55 163.963 135.42 156.723 132.212 148.07Z" fill="#191919"/>
<path d="M114.245 138.133C113.431 138.066 112.571 137.674 112.596 137.351C113.28 128.654 114.054 119.964 114.858 110.768C118.182 117.064 121.487 123.324 124.799 129.598C121.369 132.373 117.99 135.107 114.245 138.133Z" fill="#D1D1D1"/>
<path d="M101.987 155.378C103.836 154.309 105.192 153.469 107.517 152.029C106.673 158.097 105.961 163.218 105.249 168.341C99.948 164.369 95.0662 160.71 90.1719 157.041C93.6149 156.605 97.5555 156.106 101.987 155.378Z" fill="#D1D1D1"/>
<path d="M142.67 127.56C142.155 129.869 141.834 131.653 141.327 134.468C138.228 133.088 135.646 131.939 132.533 130.553C136.417 126.232 139.878 122.382 143.339 118.532C143.877 118.736 144.414 118.94 144.951 119.144C144.255 121.774 143.56 124.405 142.67 127.56Z" fill="#D1D1D1"/>
<path d="M136.455 190.129C136.168 191.952 135.884 193.207 135.431 195.204C132.13 192.628 129.458 190.541 125.83 187.709C129.432 185.369 132.385 183.45 136.459 180.803C136.459 184.314 136.459 186.938 136.455 190.129Z" fill="#D3D3D3"/>
<path d="M149.809 150.539C152.976 151.559 155.645 152.348 159.994 153.634C155.31 156.361 151.601 158.52 147.893 160.679C147.158 160.262 146.423 159.844 145.688 159.427C146.895 156.387 148.103 153.347 149.809 150.539Z" fill="#D4D4D4"/>
<path d="M106.609 194.763C107.264 190.463 107.919 186.163 108.692 181.087C111.799 183.793 114.479 186.128 117.469 188.732C114.115 190.893 111.011 192.894 107.341 194.897C106.776 194.9 106.609 194.763 106.609 194.763Z" fill="#D2D2D2"/>
<path d="M180.551 144.455C180.919 143.737 181.429 143.553 182.346 143.386C182.543 146.011 182.334 148.617 182.125 151.223C181.647 151.185 181.17 151.148 180.692 151.11C180.692 149.07 180.692 147.029 180.551 144.455Z" fill="#8B8B8B"/>
<path d="M103.879 247.802C109.425 247.812 109.881 248.173 108.344 251.483C106.623 250.515 105.306 249.373 103.879 247.802Z" fill="#0B0B0B"/>
<path d="M138.203 244.03C138.258 242.523 138.709 240.922 139.403 238.738C145.418 241.193 139.364 242.084 138.203 244.03Z" fill="#0B0B0B"/>
<path d="M99.6133 242.339C104.204 239.197 101.696 243.704 102.509 245.368C101.561 244.841 100.62 243.804 99.6133 242.339Z" fill="#0B0B0B"/>
<path d="M127.059 251.526C127.777 250.631 128.959 249.713 130.666 248.832C129.968 249.748 128.744 250.625 127.059 251.526Z" fill="#0B0B0B"/>
<path d="M96.3911 229.094C96.5483 229.788 96.3479 230.714 95.7199 231.679C95.5395 230.92 95.7864 230.123 96.3911 229.094Z" fill="#0B0B0B"/>
<path d="M113.681 105.985C113.542 106.688 113.344 107.059 113.146 107.431C112.985 106.841 112.793 106.257 112.69 105.658C112.67 105.535 112.981 105.239 113.143 105.236C113.3 105.233 113.463 105.504 113.681 105.985Z" fill="#D1D1D1"/>
<path d="M106.856 194.972C106.678 195.645 106.42 196.245 106.161 196.845C106.125 196.293 106.088 195.74 106.33 194.975C106.609 194.763 106.776 194.9 106.856 194.972Z" fill="#D2D2D2"/>
<path d="M110.365 246.56C110.413 246.64 110.318 246.481 110.365 246.56Z" fill="#0B0B0B"/>
<path d="M132.508 148.564C135.42 156.722 134.55 163.963 129.499 170.316C125.724 175.066 121.374 174.182 119.665 168.384C117.539 161.173 118.863 154.364 123.538 148.46C126.064 145.27 129.138 144.059 132.508 148.564ZM125.777 153.883C124.806 157.653 123.835 161.424 122.865 165.195C130.733 161.583 131.34 157.429 125.777 153.883Z" fill="#EDEDED"/>
<path d="M126.191 153.587C131.339 157.429 130.731 161.583 122.863 165.195C123.834 161.424 124.804 157.653 126.191 153.587Z" fill="#CDCDCD"/>
<path fill-rule="evenodd" clip-rule="evenodd" d="M61.7268 276.352V276.594C62.0748 277.037 62.4263 277.481 62.7812 277.924L69.1994 283.425L71.8427 284.936L75.9444 286.576L80.1292 287.413L84.8503 287.906L84.8951 287.911L84.9399 287.916L87.1545 288.181C89.5244 288.178 91.8944 288.176 94.2643 288.173C99.8474 288.167 105.584 287.231 110.984 285.756C132.722 279.817 148.713 265.636 161.771 248.126C190.823 209.168 202.009 164.878 198.446 116.856C196.753 94.0333 190.618 72.2691 176.545 53.5403C165.205 38.4483 150.696 28.9448 131.17 28.6397C112.292 28.3448 97.695 37.4864 85.0797 50.2179C63.8294 71.6641 50.3268 97.9789 42.1089 126.496C27.0038 178.914 25.3699 230.032 61.5377 276.352H61.7268ZM58.3992 154.379C54.5831 177.081 54.6557 199.74 63.0619 221.341C66.9061 231.219 72.553 241.114 79.7123 248.843C97.5303 268.08 125.641 265.982 148.351 244.374C173.239 220.693 184.836 190.496 189.036 157.088C192.035 133.236 189.879 109.959 179.399 87.9662C168.797 65.7208 150.712 54.4148 130.192 57.5397C113.991 60.0068 101.624 69.3818 91.12 81.3208C72.9925 101.925 63.3033 126.447 58.3992 154.379Z" fill="#060606"/>
</svg>
