<svg width="850" height="218" viewBox="0 0 850 218" fill="none" xmlns="http://www.w3.org/2000/svg">
<path d="M806.926 105.958C810.034 84.8472 810.591 63.8473 803.038 43.456C800.706 37.1601 797.357 31.241 794.083 24.324C796.008 25.6965 797.652 26.5732 798.928 27.8244C811.898 40.5344 817.7 56.6539 819.839 74.1353C821.045 83.9931 820.802 94.0281 821.101 104.856C820.99 108.063 820.99 110.397 820.99 112.73C821.25 112.775 821.51 112.821 821.77 112.866C822.148 110.23 822.527 107.593 822.906 104.957C826.233 83.2764 826.17 61.8351 818.103 41.0284C816.694 37.3952 814.771 33.9616 813.766 29.6069C815.024 30.7585 816.517 31.7381 817.502 33.0885C826.241 45.0662 830.947 58.7037 832.753 73.231C837.224 109.198 828.636 141.88 807.082 171.076C805.919 172.651 804.353 173.929 802.18 176.162C805.723 166.442 808.785 158.045 811.846 149.647C811.362 149.449 810.879 149.251 810.396 149.053C809.878 150.091 809.306 151.105 808.85 152.169C802.86 166.148 795.871 179.559 785.584 190.918C780.304 196.749 773.335 199.666 764.617 201.617C781.332 185.028 790.515 165.776 796.406 144.784C795.99 144.565 795.573 144.347 795.157 144.129C793.205 148.279 791.336 152.47 789.287 156.571C781.316 172.53 771.595 187.131 756.521 197.356C749.618 202.039 742.438 206.201 732.901 204.498C759.183 188.905 771.214 164.192 778.913 136.593C767.574 159.936 755.512 182.683 730.776 194.907C725.629 197.45 719.857 198.732 714.373 200.595C714.168 200.069 713.963 199.544 713.758 199.019C714.449 198.582 715.104 198.069 715.838 197.72C729.281 191.328 739.973 181.595 748.103 169.374C773.046 131.881 780.65 91.5168 765.898 48.2648C760.713 33.0634 751.186 20.8396 735.687 13.8618C737.779 14.1455 739.959 14.1464 741.952 14.7565C761.925 20.8717 773.85 35.0686 780.593 54.0976C786.001 69.358 787.245 85.2747 786.842 101.348C786.78 103.806 786.296 106.253 786.405 108.741C792.442 91.8139 793.954 46.8602 772.408 20.7101C773.877 21.3699 775.502 21.8094 776.79 22.7233C790.879 32.717 797.996 47.0999 801.978 63.3483C805.335 77.0436 805.988 90.9855 805.145 105.85C805.007 108.361 805.007 110.042 805.007 111.722C805.34 111.765 805.674 111.809 806.007 111.853C806.313 109.888 806.62 107.923 806.926 105.958Z" fill="#070707"/>
<path d="M511.913 195.891C566.107 194.701 619.814 193.531 673.602 192.358C646.554 159.187 647.544 122.45 658.403 84.7618C664.199 64.6431 673.724 46.0779 688.714 30.9476C697.613 21.9655 707.909 15.5161 721.226 15.7241C734.999 15.9393 745.234 22.6441 753.233 33.2915C763.16 46.5047 767.488 61.8594 768.682 77.9611C771.195 111.84 763.305 143.087 742.811 170.572C733.6 182.926 722.321 192.93 706.987 197.12C703.178 198.161 699.131 198.821 695.193 198.825C616.715 198.911 538.238 198.874 459.761 198.862C458.517 198.862 457.273 198.862 456.029 198.862C456.017 198.261 456.005 197.659 455.992 197.058C474.47 196.675 492.948 196.292 511.913 195.891ZM669.894 104.433C667.202 120.45 667.253 136.436 673.183 151.675C675.894 158.644 679.878 165.625 684.928 171.078C697.497 184.65 717.326 183.17 733.345 167.925C750.901 151.218 759.081 129.914 762.044 106.345C764.159 89.5171 762.639 73.095 755.246 57.579C747.768 41.8849 735.011 33.9084 720.536 36.1131C709.108 37.8537 700.384 44.4677 692.975 52.8907C680.188 67.4269 673.353 84.7274 669.894 104.433Z" fill="#060606"/>
<path d="M230.641 102.359C218.062 87.6875 222.368 63.3882 239.396 52.4602C250.227 45.5103 262.085 44.0075 274.365 47.6645C290.177 52.3731 297.003 66.8456 292.108 84.5334C285.056 110.018 250.677 120.173 230.641 102.359ZM246.011 93.6034C253.667 98.2796 262.18 97.7022 268.576 92.0728C275.124 86.3107 278.178 74.9831 274.381 68.0441C272.909 65.353 270.111 62.7795 267.304 61.5418C259.416 58.0631 250.001 61.4002 244.98 68.7463C239.585 76.6386 239.778 86.6213 246.011 93.6034Z" fill="#4456F1"/>
<path d="M416.085 74.7146C413.509 83.0197 407.809 87.7882 399.807 91.1195C403.249 97.261 406.595 103.233 410.384 109.995C404.467 109.995 399.242 110.137 394.037 109.883C392.905 109.827 391.493 108.57 390.813 107.488C388.606 103.972 386.352 100.421 384.73 96.6215C382.842 92.2009 379.188 92.6113 375.974 93.3231C374.525 93.644 373.153 96.3342 372.59 98.2036C371.455 101.973 370.898 105.916 370.098 109.806C364.229 109.806 358.776 109.806 352.623 109.806C356.823 88.7517 360.96 68.0166 365.007 47.7333C376.54 47.7333 387.743 46.8321 398.74 47.9542C413.542 49.4646 419.795 59.7871 416.085 74.7146ZM377.911 71.4171C377.425 73.9582 376.94 76.4994 376.212 80.31C382.525 79.6336 388.012 79.6057 393.19 78.327C397.992 77.1414 400.079 72.2765 399.13 67.0982C398.263 62.3605 394.716 61.2299 390.647 61.0615C387.184 60.9182 383.711 61.0319 380.011 61.0319C379.306 64.4167 378.666 67.489 377.911 71.4171Z" fill="#4355F1"/>
<path d="M110.98 108.226C101.242 102.576 97.3057 94.2428 99.3212 83.7167C101.445 72.6231 103.821 61.5771 105.864 50.4693C106.361 47.7653 107.411 46.8397 110.099 46.9493C114.571 47.1316 119.056 46.999 124.139 46.999C121.921 58.2398 119.772 69.0674 117.661 79.9022C117.344 81.5273 117.084 83.1806 117.001 84.8311C116.666 91.5273 118.29 94.5068 122.964 96.0035C128.958 97.9227 135.038 96.2155 137.784 91.0355C139.694 87.4333 140.88 83.3335 141.754 79.3178C144.049 68.771 145.997 58.1486 148.136 47.2877C153.758 47.2877 159.331 47.2877 165.817 47.2877C162.383 62.3718 160.173 77.4548 155.399 91.6776C149.527 109.175 130.029 115.814 110.98 108.226Z" fill="#4356F1"/>
<path d="M52.4002 56.3935C55.631 48.4091 61.1947 45.4741 69.3004 46.9453C71.2222 47.2942 73.2612 46.997 75.6989 46.997C80.7464 67.8737 85.762 88.6182 90.8614 109.709C85.0143 109.709 79.4589 109.709 73.8966 109.709C73.6768 109.463 73.3331 109.256 73.271 108.984C70.6902 97.6827 70.6934 97.6819 58.8434 97.6819C57.8447 97.6819 56.8231 97.821 55.8511 97.6602C47.3546 96.2541 41.0523 98.5956 37.9825 107.383C37.5617 108.587 35.3289 109.793 33.8655 109.884C28.9129 110.193 23.929 110.002 18.0117 110.002C29.6684 91.8236 40.9318 74.2586 52.4002 56.3935ZM58.5072 72.9863C56.3171 76.7564 54.1271 80.5265 51.8094 84.5164C57.6472 84.5164 62.6844 84.5164 68.2158 84.5164C66.7974 77.7823 65.4735 71.4974 63.8838 63.9499C61.7272 67.5729 60.3034 69.9648 58.5072 72.9863Z" fill="#4456F1"/>
<path d="M471.283 110.003C468.605 110.197 466.894 109.889 466.8 107.02C466.746 105.382 466.024 103.775 465.876 102.129C465.559 98.612 463.839 97.4292 460.289 97.6021C454.304 97.8937 448.288 97.8409 442.297 97.6184C439.067 97.4985 436.771 98.3325 435.653 101.492C433.137 108.602 428.289 111.445 420.771 110.076C418.23 109.614 415.535 110.003 412.281 110.003C413.309 108.211 413.97 106.936 414.742 105.731C426.515 87.3679 438.365 69.0536 450.017 50.6139C451.744 47.8801 453.529 46.6838 456.786 46.9235C460.918 47.2276 465.089 46.997 469.704 46.997C472.242 57.568 474.737 68.0165 477.262 78.4578C479.76 88.7874 482.287 99.1097 484.94 110.003C480.292 110.003 476.018 110.003 471.283 110.003ZM448.776 79.3003C447.849 80.9505 446.921 82.6006 445.814 84.5699C451.603 84.5699 456.646 84.5699 462.191 84.5699C460.798 77.8457 459.486 71.5165 457.921 63.9628C454.526 69.6242 451.821 74.1342 448.776 79.3003Z" fill="#4456F1"/>
<path d="M583.251 74.518C587.795 57.5995 598.964 48.5497 615.487 46.3273C627.458 44.7172 638.738 46.5025 647.133 57.4132C642.945 60.7918 638.997 63.9769 634.761 67.3943C629.549 61.5083 623.356 59.0494 615.597 60.9069C604.489 63.5664 597.137 76.6345 600.905 87.4318C603.724 95.5107 613.344 99.0815 622.642 95.203C625.634 93.9547 628.277 91.8684 631.221 90.08C634.123 93.2147 637.148 96.4818 640.514 100.118C635.496 106.982 627.622 110.074 618.868 110.805C613.808 111.228 608.496 110.9 603.536 109.817C588.944 106.629 580.678 94.2871 582.559 79.3669C582.746 77.8824 582.94 76.3987 583.251 74.518Z" fill="#4456F1"/>
<path d="M542.512 76.6428C540.584 88.18 540.584 88.18 529.513 88.18C525.515 88.18 521.489 88.478 517.527 88.0976C513.433 87.7045 511.965 89.4742 511.375 93.2193C510.5 98.77 509.224 104.257 508.112 109.809C502.245 109.809 496.789 109.809 490.621 109.809C494.825 88.745 498.964 68.0003 503.11 47.2252C519.576 47.2252 535.685 47.2252 552.172 47.2252C551.516 50.4183 550.541 53.3074 550.41 56.2342C550.223 60.4067 548.01 60.9326 544.526 60.8369C537.202 60.6356 529.862 60.9676 522.543 60.6928C519.031 60.5611 517.323 61.5402 517.02 65.1648C516.774 68.0995 516.028 70.9924 515.336 74.8403C523.244 74.8403 530.646 74.7633 538.044 74.9034C539.576 74.9325 541.092 75.7687 542.512 76.6428Z" fill="#4356F1"/>
<path d="M305.311 47.0002C323.064 46.9995 340.349 46.9995 358.251 46.9995C357.357 51.7516 356.546 56.0613 355.647 60.834C349.332 60.834 343.075 60.834 336.357 60.834C333.89 73.0232 331.412 84.8253 329.128 96.6649C326.524 110.17 326.599 110.189 312.674 109.992C311.53 109.976 310.387 109.84 308.996 109.743C312.184 93.6161 315.331 77.6899 318.591 61.1993C312.165 61.1993 306.258 61.1993 299.5 61.1993C300.411 56.4698 301.104 52.317 302.112 48.2419C302.261 47.64 303.895 47.4054 305.311 47.0002Z" fill="#4355F1"/>
<path d="M184.023 79.0816C185.22 72.9832 186.358 67.3068 187.603 61.0941C181.097 61.0941 175.155 61.0941 168.518 61.0941C169.423 56.215 170.227 51.8877 171.08 47.2919C189.736 47.2919 208.292 47.2919 227.261 47.2919C226.36 51.8636 225.504 56.2061 224.564 60.9732C218.125 60.9732 211.863 60.9732 205.329 60.9732C202.224 76.3144 199.098 91.2353 196.268 106.212C195.727 109.073 194.878 110.217 191.886 110.061C187.421 109.828 182.935 110 177.959 110C180.014 99.5647 181.989 89.5342 184.023 79.0816Z" fill="#4355F1"/>
<path d="M548.973 108.152C553.036 87.5678 557.079 67.4312 561.145 47.1765C566.856 47.1765 572.304 47.1765 578.651 47.1765C574.473 68.161 570.354 88.8508 566.158 109.93C560.618 109.93 555.35 109.957 550.083 109.872C549.699 109.866 549.329 109.043 548.973 108.152Z" fill="#4355F1"/>
<path d="M395.006 152.23C398.416 160.664 397.199 167.957 390.973 174.104C385.298 179.707 374.773 181.26 367.144 177.663C359.854 174.225 356.018 168.329 355.975 160.225C355.932 152.247 360.79 145.635 368.517 142.778C377.006 139.638 386.941 141.865 392.326 148.182C393.289 149.312 394.025 150.638 395.006 152.23ZM386.368 158.199C385.255 153.035 382.204 149.989 376.804 149.791C372.2 149.622 368.801 151.63 367.074 156.009C365.263 160.603 365.991 164.886 369.401 168.426C372.516 171.658 376.621 171.926 380.47 170.36C385.399 168.353 386.865 164.009 386.368 158.199Z" fill="#1A1A1A"/>
<path d="M456.61 169.041C455.151 169.853 453.414 170.524 453.215 171.507C452.765 173.728 453.073 176.103 453.073 178.707C449.809 178.707 446.721 178.707 443.273 178.707C443.273 166.725 443.273 154.561 443.273 141.679C450.416 142.012 457.515 142.055 464.546 142.761C470.356 143.345 474.334 146.781 475.639 152.64C476.925 158.415 475.034 163.08 470.089 166.444C469.695 166.713 469.41 167.141 468.951 167.624C471.326 171.178 473.693 174.718 476.152 178.399C469.427 180.288 464.434 179.098 461.331 172.538C460.619 171.031 458.501 170.19 456.61 169.041ZM463.278 160.221C465.94 158.25 466.818 155.617 464.987 152.862C461.969 148.324 457.429 150.342 453.372 150.316C453.372 154.095 453.372 157.487 453.372 161.268C456.669 161.061 459.626 160.875 463.278 160.221Z" fill="#161616"/>
<path d="M73.0195 149.753C65.3416 150.788 61.4603 155.267 62.2391 161.714C62.9977 167.995 67.4123 171.29 74.1515 171.07C77.8422 170.95 79.2606 169.463 78.8489 165.845C78.6459 164.061 78.8137 162.234 78.8137 160.151C81.8001 160.151 84.5233 160.151 87.5412 160.151C87.5412 165.132 87.5412 169.917 87.5412 174.863C76.8525 181.904 62.78 180.853 56.0142 172.332C49.8887 164.617 50.768 152.985 57.966 146.511C65.9924 139.291 79.8191 139.748 88.392 147.935C86.4558 149.692 84.543 151.428 82.8848 152.934C79.5412 151.803 76.4915 150.772 73.0195 149.753Z" fill="#1B1B1B"/>
<path d="M155.901 141.975C158.543 141.975 160.701 141.975 163.213 141.975C163.213 144.547 163.213 146.938 163.213 149.789C157.412 149.789 151.513 149.789 145.321 149.789C145.321 152.117 145.321 154.003 145.321 156.367C150.436 156.367 155.519 156.367 160.926 156.367C160.926 159.061 160.926 161.292 160.926 163.86C155.934 163.86 150.825 163.86 145.37 163.86C145.37 166.234 145.37 168.29 145.37 170.889C151.408 170.889 157.633 170.889 164.016 170.889C164.016 173.71 164.016 175.999 164.016 178.644C154.556 178.644 145.02 178.644 135.2 178.644C135.2 166.672 135.2 154.617 135.2 141.975C141.898 141.975 148.658 141.975 155.901 141.975Z" fill="#151515"/>
<path d="M583.899 159.838C585.834 155.391 588.113 151.444 589.376 147.195C590.752 142.561 593.462 141.285 597.808 141.939C598.943 142.11 600.125 141.965 601.788 141.965C607.139 154.05 612.535 166.237 618.19 179.01C615.765 179.01 613.835 178.837 611.949 179.049C608.901 179.393 606.764 178.646 606.141 175.312C605.583 172.322 603.703 171.227 600.751 171.565C599.439 171.715 598.066 171.77 596.77 171.559C590.843 170.591 586.688 172.206 586.038 178.894C582.592 178.894 579.453 178.894 575.527 178.894C578.386 172.431 581.09 166.318 583.899 159.838ZM600.285 160.564C599.172 157.87 598.06 155.175 596.66 151.786C594.878 156.262 593.426 159.912 591.833 163.915C595.198 163.915 598.096 163.915 601.216 163.915C601.008 162.889 600.847 162.093 600.285 160.564Z" fill="#1A1A1A"/>
<path d="M232.065 150.466C228.614 149.998 225.49 149.373 222.41 149.545C221.25 149.61 220.192 151.519 219.087 152.588C220.06 153.582 220.863 155.056 222.041 155.476C224.989 156.527 228.146 156.972 231.149 157.891C237.319 159.778 240.103 162.961 240.047 167.763C239.989 172.66 236.762 176.977 231.151 178.434C223.382 180.453 215.768 179.822 208.384 175.608C209.487 173.083 210.462 170.853 211.201 169.161C216.15 170.088 220.632 171.234 225.177 171.605C226.654 171.725 228.296 169.82 229.862 168.841C228.518 167.619 227.368 165.896 225.787 165.28C222.724 164.086 219.338 163.739 216.232 162.632C212.073 161.15 209.034 158.474 208.945 153.599C208.856 148.739 211.237 145.202 215.518 143.356C223.118 140.077 230.664 141.072 238.818 144.535C235.885 146.369 238.633 152.631 232.065 150.466Z" fill="#191919"/>
<path d="M308.081 150.063C306.291 150.063 304.977 150.063 303.21 150.063C303.21 159.672 303.21 169.071 303.21 178.731C299.682 178.731 296.598 178.731 293.01 178.731C293.01 169.435 293.01 160.048 293.01 150.134C288.976 150.134 285.412 150.134 281.679 150.134C281.679 147.185 281.679 144.772 281.679 142.168C292.518 142.168 303.106 142.168 313.937 142.168C313.937 144.726 313.937 147.132 313.937 150.063C312.114 150.063 310.335 150.063 308.081 150.063Z" fill="#161616"/>
<path d="M524.125 141.982C526.903 141.979 529.204 141.979 531.783 141.979C531.783 154.276 531.783 166.322 531.783 178.684C528.818 178.684 525.737 178.684 521.924 178.684C521.924 172.861 521.924 166.797 521.924 160.733C521.924 155.582 521.825 150.429 522.002 145.285C522.041 144.167 523.072 143.084 524.125 141.982Z" fill="#141414"/>
<path d="M424.58 199C416.033 199 408.017 199 400 199C400.001 198.333 400.002 197.667 400.004 197C418.984 197 437.965 197 456.946 197C456.964 197.667 456.982 198.333 457 199C446.37 199 435.74 199 424.58 199Z" fill="#060606"/>
<path d="M669.935 104C673.353 84.7274 680.187 67.4268 692.975 52.8907C700.384 44.4677 709.108 37.8537 720.536 36.1131C735.011 33.9084 747.768 41.8849 755.246 57.579C762.639 73.095 764.159 89.5171 762.044 106.345C759.081 129.914 750.9 151.218 733.345 167.925C717.326 183.17 697.496 184.65 684.928 171.078C679.877 165.625 675.894 158.644 673.182 151.675C667.253 136.436 667.202 120.45 669.935 104ZM704.816 133.017C707.005 131.606 709.195 130.194 711.561 128.67C709.452 126.832 707.561 125.185 705.37 123.276C704.825 126.857 704.363 129.891 703.507 133.224C703.533 133.614 703.559 134.004 703.585 134.393C703.767 133.97 703.949 133.546 704.816 133.017ZM726.465 167.616C727.005 166.31 731.276 165.681 727.005 162.833C726.36 160.611 725.713 158.39 725.069 156.168C723.504 150.774 722.456 145.157 720.248 140.041C717.28 133.166 711.629 132.387 707.297 138.461C703.216 144.185 700.347 150.773 696.44 157.308C696.266 157.871 696.091 158.433 695.397 159.616C696.571 161.807 697.746 163.998 699.012 166.791C699.676 167.523 700.34 168.255 701.11 169.477C701.373 169.665 701.635 169.852 702.051 170.646C702.98 171.452 703.91 172.258 705.013 173.607C705.342 173.738 705.671 173.869 705.848 174.734C704.886 174.646 703.85 174.759 702.973 174.439C691.655 170.307 683.693 162.67 680.075 151.133C672.53 127.073 675.267 103.464 684.115 80.3223C689.733 65.6287 698.293 53.1936 712.745 45.7893C715.459 44.3988 718.455 43.5582 721.932 42.2305C721.629 43.6053 721.648 43.8554 721.549 43.9182C712.231 49.8223 710.637 53.4365 712.915 63.4453C713.764 67.1731 714.181 71.0588 715.531 74.5915C716.421 76.9216 718.672 80.4512 720.227 80.4064C722.577 80.3387 725.663 78.1218 727.002 75.9387C730.73 69.8634 733.669 63.3087 737.026 56.9999C738.221 54.7545 739.721 52.6713 741.114 50.4623C748.293 56.3017 748.501 57.179 744.808 64.3973C743.824 66.3211 742.77 68.2111 741.838 70.1597C739.401 75.2579 736.092 80.1796 734.922 85.5612C734.113 89.2794 735.729 93.9086 737.455 97.568C737.995 98.7127 742.432 98.2406 745.068 98.1221C748.707 97.9585 752.329 97.4286 756.158 97.8083C756.158 99.2479 756.158 100.688 756.158 102.127C756.494 102.154 756.831 102.18 757.168 102.207C757.316 100.368 757.463 98.5297 757.655 95.8051C757.671 93.3062 757.782 90.8036 757.686 88.309C757.221 76.2064 755.252 64.4476 748.934 53.8553C739.831 38.5936 724.077 34.607 709.183 44.2977C703.97 47.6893 699.073 52.0637 695.19 56.9156C678.484 77.7879 671.694 102.09 672.047 128.533C672.206 140.49 674.494 152.057 680.845 162.415C686.828 172.175 695.056 178.144 708.022 176.752C711.347 175.497 714.673 174.243 718.651 172.954C719.515 172.335 720.378 171.716 721.857 170.986C723.207 169.907 724.557 168.828 726.465 167.616ZM747.033 113.431C742.947 114.734 737.674 114.914 735.091 117.641C732.217 120.675 730.146 126.229 730.646 130.331C731.671 138.748 734.646 146.927 737.043 156.061C746.685 142.61 752.224 128.624 755.23 113.296C752.51 113.296 750.214 113.296 747.033 113.431ZM697.769 77.2812C695.558 83.9772 693.347 90.6732 690.691 98.7181C694.602 98.4175 698.078 99.2036 699.688 97.8194C703.732 94.3407 706.733 89.7002 705.844 83.8688C705.055 78.6992 703.844 73.5939 702.522 66.9684C700.616 71.0124 699.31 73.7827 697.769 77.2812ZM692.893 114.184C691.65 114.184 690.408 114.184 689.654 114.184C689.654 124.457 689.654 134.378 689.654 144.3C690.222 144.39 690.79 144.48 691.358 144.571C693.787 139.55 696.632 134.681 698.535 129.467C700.599 123.813 697.798 116.231 692.893 114.184ZM712.013 100.772C711.476 106.13 710.509 111.499 710.642 116.841C710.688 118.656 713.283 121.486 715.126 121.872C716.95 122.253 719.916 120.656 721.3 119.015C725.844 113.628 726.981 107.012 725.573 100.293C725.074 97.9137 722.732 94.4227 720.9 94.2034C718.652 93.9344 716.014 96.4923 713.644 97.9861C713.019 98.3802 712.76 99.3563 712.013 100.772ZM709.545 92.7654C711.929 90.8369 714.312 88.9083 716.732 86.9503C714.395 82.5242 712.064 78.1078 709.719 73.6659C709.152 80.1534 708.606 86.2842 708.124 92.4201C708.106 92.6477 708.713 92.9245 709.545 92.7654ZM700.294 105.3C697.514 105.652 694.734 106.004 692.306 106.312C695.758 108.9 699.202 111.481 702.941 114.284C703.443 110.669 703.946 107.057 704.541 102.776C702.901 103.791 701.944 104.384 700.294 105.3ZM729.474 85.1425C729.965 83.2866 730.455 81.4307 730.946 79.5748C730.567 79.4309 730.188 79.2871 729.809 79.1433C727.368 81.8595 724.927 84.5758 722.187 87.6244C724.382 88.6019 726.203 89.4126 728.39 90.3859C728.747 88.4005 728.974 87.1414 729.474 85.1425ZM724.956 129.255C724.956 127.404 724.956 125.553 724.956 123.076C722.082 124.943 719.999 126.297 717.459 127.948C720.017 129.946 721.903 131.418 724.231 133.236C724.55 131.827 724.751 130.941 724.956 129.255ZM734.022 101.561C733.17 103.706 732.318 105.85 731.466 107.995C731.985 108.289 732.503 108.584 733.022 108.878C735.638 107.355 738.254 105.831 741.558 103.908C738.49 103 736.607 102.444 734.022 101.561ZM708.848 70.0583C708.735 69.952 708.62 69.7608 708.509 69.7629C708.395 69.765 708.175 69.9741 708.19 70.0604C708.263 70.4833 708.398 70.8954 708.511 71.3113C708.651 71.0492 708.791 70.7871 708.848 70.0583Z" fill="#F4F4F4"/>
<path d="M755.957 97.0556C752.328 97.4286 748.706 97.9585 745.068 98.1221C742.432 98.2406 737.994 98.7127 737.454 97.568C735.729 93.9086 734.113 89.2794 734.921 85.5612C736.092 80.1796 739.4 75.2579 741.838 70.1597C742.77 68.2111 743.824 66.3211 744.808 64.3973C748.501 57.179 748.293 56.3017 741.114 50.4623C739.721 52.6713 738.221 54.7545 737.026 56.9999C733.669 63.3087 730.729 69.8634 727.002 75.9387C725.662 78.1218 722.577 80.3387 720.227 80.4064C718.672 80.4512 716.421 76.9216 715.53 74.5915C714.181 71.0588 713.763 67.1731 712.915 63.4453C710.637 53.4365 712.231 49.8223 721.549 43.9182C721.648 43.8554 721.628 43.6053 721.932 42.2305C718.455 43.5582 715.459 44.3988 712.745 45.7893C698.292 53.1936 689.732 65.6287 684.114 80.3223C675.266 103.464 672.529 127.073 680.075 151.133C683.692 162.67 691.654 170.307 702.972 174.439C703.85 174.759 704.885 174.646 706.232 174.598C706.812 175.202 707.009 175.942 707.206 176.681C695.055 178.144 686.828 172.175 680.844 162.415C674.494 152.057 672.206 140.49 672.046 128.533C671.694 102.09 678.483 77.7879 695.189 56.9156C699.073 52.0637 703.969 47.6893 709.182 44.2977C724.077 34.607 739.831 38.5936 748.934 53.8553C755.252 64.4476 757.221 76.2064 757.686 88.309C757.781 90.8036 757.67 93.3062 757.346 96.2351C756.677 96.7953 756.317 96.9255 755.957 97.0556Z" fill="#0B0B0B"/>
<path d="M707.614 176.717C707.01 175.942 706.813 175.202 706.309 174.231C705.672 173.869 705.342 173.738 705.211 173.212C706.208 170.605 705.887 170.351 701.897 170.04C701.635 169.852 701.373 169.665 701.062 168.871C700.435 167.452 702.205 164.273 698.92 166.189C697.746 163.998 696.572 161.807 695.959 159.278C696.662 158.288 696.803 157.635 696.945 156.981C700.347 150.773 703.216 144.185 707.297 138.461C711.629 132.387 717.281 133.166 720.248 140.041C722.456 145.157 723.504 150.774 725.069 156.167C725.714 158.39 726.36 160.611 726.933 163.596C726.543 165.489 726.225 166.619 725.908 167.749C724.557 168.828 723.207 169.907 721.178 171.015C719.666 171.692 718.833 172.34 717.999 172.988C714.674 174.242 711.348 175.497 707.614 176.717Z" fill="#030303"/>
<path d="M747.477 113.364C750.215 113.296 752.511 113.296 755.231 113.296C752.225 128.624 746.686 142.61 737.044 156.061C734.647 146.927 731.672 138.748 730.647 130.331C730.147 126.229 732.218 120.675 735.092 117.641C737.676 114.914 742.948 114.734 747.477 113.364Z" fill="#070707"/>
<path d="M697.886 76.917C699.309 73.7827 700.615 71.0124 702.522 66.9684C703.844 73.5939 705.055 78.6991 705.844 83.8688C706.733 89.7002 703.732 94.3406 699.688 97.8193C698.078 99.2036 694.602 98.4174 690.691 98.718C693.347 90.6732 695.558 83.9772 697.886 76.917Z" fill="#0C0C0C"/>
<path d="M693.312 114.277C697.799 116.231 700.599 123.813 698.536 129.467C696.633 134.68 693.788 139.55 691.358 144.571C690.79 144.48 690.222 144.39 689.654 144.299C689.654 134.378 689.654 124.457 689.654 114.184C690.408 114.184 691.651 114.184 693.312 114.277Z" fill="#090909"/>
<path d="M712.174 100.418C712.761 99.3563 713.02 98.3802 713.645 97.9861C716.015 96.4922 718.653 93.9343 720.901 94.2034C722.732 94.4226 725.075 97.9137 725.574 100.293C726.982 107.012 725.845 113.628 721.301 119.015C719.917 120.656 716.951 122.253 715.127 121.872C713.283 121.486 710.689 118.656 710.643 116.841C710.51 111.499 711.477 106.13 712.174 100.418ZM721.961 99.9826C719.792 97.1524 717.624 98.0067 715.842 100.258C712.545 104.423 711.611 109.227 713.11 114.314C714.316 118.404 717.384 119.028 720.047 115.677C723.61 111.195 724.224 106.087 721.961 99.9826Z" fill="#191919"/>
<path d="M709.287 92.9719C708.712 92.9245 708.106 92.6477 708.123 92.4201C708.606 86.2842 709.152 80.1534 709.719 73.6659C712.063 78.1078 714.395 82.5243 716.731 86.9503C714.312 88.9083 711.928 90.8369 709.287 92.9719Z" fill="#D1D1D1"/>
<path d="M700.641 105.138C701.945 104.384 702.902 103.791 704.542 102.776C703.946 107.057 703.444 110.669 702.942 114.284C699.203 111.481 695.759 108.9 692.307 106.312C694.735 106.004 697.515 105.652 700.641 105.138Z" fill="#D1D1D1"/>
<path d="M729.338 85.5125C728.975 87.1415 728.748 88.4006 728.391 90.3859C726.204 89.4126 724.383 88.6019 722.188 87.6244C724.927 84.5759 727.369 81.8596 729.81 79.1433C730.189 79.2871 730.568 79.431 730.947 79.5748C730.456 81.4307 729.965 83.2866 729.338 85.5125Z" fill="#D1D1D1"/>
<path d="M724.954 129.655C724.751 130.941 724.551 131.827 724.232 133.236C721.903 131.418 720.018 129.946 717.459 127.948C720 126.297 722.083 124.943 724.956 123.076C724.956 125.553 724.956 127.404 724.954 129.655Z" fill="#D3D3D3"/>
<path d="M734.374 101.724C736.608 102.444 738.491 103 741.558 103.908C738.255 105.831 735.638 107.355 733.022 108.878C732.504 108.584 731.985 108.289 731.467 107.995C732.319 105.85 733.17 103.706 734.374 101.724Z" fill="#D4D4D4"/>
<path d="M703.9 132.924C704.362 129.891 704.824 126.857 705.369 123.276C707.561 125.185 709.452 126.832 711.561 128.67C709.195 130.194 707.005 131.606 704.417 133.019C704.018 133.021 703.9 132.924 703.9 132.924Z" fill="#D2D2D2"/>
<path d="M756.059 97.4319C756.318 96.9255 756.678 96.7953 757.325 96.6781C757.464 98.5296 757.316 100.368 757.169 102.207C756.832 102.18 756.495 102.154 756.159 102.127C756.159 100.687 756.159 99.2479 756.059 97.4319Z" fill="#8B8B8B"/>
<path d="M701.975 170.343C705.887 170.351 706.209 170.605 705.124 172.94C703.911 172.258 702.981 171.452 701.975 170.343Z" fill="#0B0B0B"/>
<path d="M726.188 167.682C726.226 166.619 726.544 165.489 727.034 163.949C731.277 165.681 727.006 166.31 726.188 167.682Z" fill="#0B0B0B"/>
<path d="M698.967 166.49C702.205 164.273 700.436 167.453 701.01 168.626C700.341 168.255 699.677 167.523 698.967 166.49Z" fill="#0B0B0B"/>
<path d="M718.326 172.971C718.833 172.34 719.666 171.692 720.871 171.07C720.378 171.716 719.515 172.335 718.326 172.971Z" fill="#0B0B0B"/>
<path d="M696.692 157.145C696.803 157.635 696.661 158.288 696.219 158.968C696.091 158.433 696.265 157.871 696.692 157.145Z" fill="#0B0B0B"/>
<path d="M708.889 70.2916C708.791 70.7871 708.651 71.0492 708.511 71.3113C708.398 70.8953 708.263 70.4832 708.19 70.0604C708.175 69.9741 708.395 69.765 708.509 69.7628C708.62 69.7608 708.735 69.952 708.889 70.2916Z" fill="#D1D1D1"/>
<path d="M704.075 133.072C703.949 133.546 703.767 133.97 703.585 134.393C703.559 134.003 703.533 133.614 703.704 133.074C703.901 132.924 704.018 133.021 704.075 133.072Z" fill="#D2D2D2"/>
<path d="M706.549 169.468C706.582 169.523 706.515 169.412 706.549 169.468Z" fill="#0B0B0B"/>
<path d="M722.169 100.331C724.222 106.087 723.609 111.195 720.046 115.677C717.383 119.028 714.315 118.404 713.109 114.314C711.61 109.227 712.544 104.423 715.841 100.258C717.623 98.0067 719.791 97.1524 722.169 100.331ZM717.42 104.083C716.735 106.743 716.051 109.404 715.366 112.064C720.916 109.516 721.345 106.585 717.42 104.083Z" fill="#EDEDED"/>
<path d="M717.714 103.875C721.346 106.585 720.917 109.516 715.367 112.064C716.052 109.404 716.736 106.743 717.714 103.875Z" fill="#CDCDCD"/>
</svg>
